# xmcd
#
# Track frame offsets:
#	183
#	11285
#	18933
#	33555
#	46513
#	58495
#	69273
#	79810
#
# Disc length: 1243 seconds
#
# Revision: 1
# Processed by: cddbd v1.5.2PL0 Copyright (c) Steve Scherf et al.
# Submitted via: dBpowerAMP V4.0
#
DISCID=5804d908
DTITLE=Various Artist - Country Gospel At Its Best - Vol. 2
DYEAR=1994
DGENRE=Gospel
TTITLE0=How beautiful Heaven must be - George Jones
TTITLE1=The church in the wildwood - Kitty Wells
TTITLE2=where we'll never grow old - George Morgan
TTITLE3=Little lord jesus - Dorsey Burnette
TTITLE4=cast thy bread upon the water - Red Sovine
TTITLE5=this is not my home - Little Jimmy Dickens
TTITLE6=i'm gonna sing my songs for jesus - Sherri Jerrico
TTITLE7=when they ring those golden bells - Fred Carter, Jr.
EXTD=country gospel
EXTT0=
EXTT1=
EXTT2=
EXTT3=
EXTT4=
EXTT5=
EXTT6=
EXTT7=
PLAYORDER=
